<svg width="49" height="45" viewBox="0 0 49 45" fill="none" xmlns="http://www.w3.org/2000/svg">
<path d="M39.7668 31.1538H43.2248V39.8077C43.2248 41.1848 42.6783 42.5055 41.7055 43.4792C40.7328 44.453 39.4135 45 38.0378 45H5.18697C3.8113 45 2.49198 44.453 1.51923 43.4792C0.546483 42.5055 0 41.1848 0 39.8077V5.19231C0 3.81522 0.546483 2.49454 1.51923 1.52079C2.49198 0.547045 3.8113 0 5.18697 0H38.0378C39.4135 0 40.7328 0.547045 41.7055 1.52079C42.6783 2.49454 43.2248 3.81522 43.2248 5.19231V7.18269H39.7668V5.19231C39.7668 4.73328 39.5846 4.29305 39.2604 3.96847C38.9361 3.64389 38.4964 3.46154 38.0378 3.46154H5.18697C4.72842 3.46154 4.28864 3.64389 3.96439 3.96847C3.64014 4.29305 3.45798 4.73328 3.45798 5.19231V39.8077C3.45798 40.2667 3.64014 40.707 3.96439 41.0315C4.28864 41.3561 4.72842 41.5385 5.18697 41.5385H38.0378C38.4964 41.5385 38.9361 41.3561 39.2604 41.0315C39.5846 40.707 39.7668 40.2667 39.7668 39.8077V31.1538ZM48.9996 15.8538C49.0013 16.5384 48.8677 17.2165 48.6066 17.8492C48.3455 18.4819 47.9619 19.0566 47.4781 19.5404L44.729 22.275L31.6405 35.3942C31.3734 35.6587 31.0274 35.8288 30.655 35.8788L24.9493 36.7096H24.69C24.2339 36.7031 23.7989 36.5165 23.4797 36.1904C23.2873 36.0013 23.1418 35.7698 23.0547 35.5143C22.9677 35.2589 22.9415 34.9866 22.9783 34.7192L23.8082 29.0077C23.8582 28.6349 24.0282 28.2886 24.2923 28.0212L37.3981 14.9192L40.1299 12.1154C41.1222 11.1744 42.4371 10.65 43.804 10.65C45.1709 10.65 46.4857 11.1744 47.4781 12.1154C47.9682 12.6053 48.3553 13.1885 48.6166 13.8305C48.878 14.4726 49.0082 15.1606 48.9996 15.8538ZM41.0635 21.0462L38.6257 18.6058L27.1452 30.0808L26.7302 32.8846L29.6003 32.4692L41.0635 21.0462ZM45.5416 15.8538C45.5351 15.3973 45.3487 14.9619 45.0229 14.6423C44.699 14.32 44.2608 14.139 43.804 14.139C43.3472 14.139 42.909 14.32 42.585 14.6423L41.0635 16.1654L43.5014 18.6058L45.0229 17.0827C45.1863 16.9224 45.3163 16.7312 45.4053 16.5203C45.4943 16.3094 45.5407 16.0828 45.5416 15.8538ZM20.7479 36.3462V32.8846H8.64495V36.3462H20.7479Z" fill="white"/>
</svg>
